<?xml version="1.0" encoding="UTF-8"?>
<svg width="12px" height="14px" viewBox="0 0 12 14" version="1.1" xmlns="http://www.w3.org/2000/svg" xmlns:xlink="http://www.w3.org/1999/xlink">
    <!-- Generator: Sketch 46.2 (44496) - http://www.bohemiancoding.com/sketch -->
    <title>Fill 76</title>
    <desc>Created with Sketch.</desc>
    <defs></defs>
    <g id="Page-1" stroke="none" stroke-width="1" fill="none" fill-rule="evenodd">
        <g id="Desktop" transform="translate(-76.000000, -964.000000)" fill="#000000">
            <g id="CV_of_YIJING_YIN" transform="translate(1.000000, -2.000000)">
                <g id="Group-84" transform="translate(75.000000, 966.000000)">
                    <path d="M5.67021056,5.37826928 C5.37022976,5.54093079 5.06178176,5.68659782 4.75333376,5.83590652 C4.68801536,5.86625381 4.62269696,5.94515678 4.54407296,5.89295943 C4.46182016,5.83712041 4.49689856,5.73758128 4.49568896,5.62226155 C4.55254016,5.31514691 4.59608576,4.97647108 4.61906816,4.63658136 C4.62874496,4.49455601 4.59608576,4.38773352 4.50052736,4.28819439 C4.26465536,4.03934656 4.03362176,3.78685705 3.80137856,3.53558144 C3.69372416,3.42026171 3.67678976,3.32800593 3.86669696,3.29158917 C4.19086976,3.22603901 4.51625216,3.1532055 4.84405376,3.09736648 C5.01944576,3.06823307 5.13919616,2.98811621 5.22386816,2.83031027 C5.37506816,2.54383179 5.53594496,2.26099498 5.69561216,1.97694429 C5.81294336,1.7802938 5.87947136,1.7802938 5.99196416,1.9745165 C6.15163136,2.25735331 6.31371776,2.53776233 6.46370816,2.82666859 C6.55200896,2.99297178 6.67780736,3.07187475 6.86408576,3.09979426 C7.17616256,3.14713604 7.48461056,3.21996955 7.79426816,3.27945025 C7.99748096,3.31950869 8.01078656,3.4069089 7.87289216,3.55136203 C7.65516416,3.78078759 7.44227456,4.01506872 7.22333696,4.24328039 C7.10358656,4.36952515 7.05641216,4.50062547 7.07213696,4.68270925 C7.09874816,5.00803227 7.15076096,5.32849972 7.19309696,5.65139495 C7.22696576,5.9281623 7.18704896,5.95122624 6.94391936,5.83590652 C6.63789056,5.68781171 6.32581376,5.54457247 6.02704256,5.38069707 C5.89761536,5.31150523 5.79963776,5.30907745 5.67021056,5.37826928 M11.583945,11.0034442 L9.31473536,6.84343676 C9.74535296,6.19157683 9.99694976,5.40983047 9.99694976,4.5710312 C9.99694976,2.29741174 8.15472896,0.448654432 5.88914816,0.448654432 C3.62356736,0.448654432 1.77892736,2.29741174 1.77892736,4.5710312 C1.77892736,5.37826928 2.01238016,6.12966835 2.41396736,6.76696157 L0.10000256,11.0034442 C0.04436096,11.1090528 0.05403776,11.2401531 0.13024256,11.3384783 C0.20160896,11.4331619 0.32982656,11.4756481 0.44594816,11.4440869 L2.32324736,10.9536746 L3.01997696,12.8679821 C3.05989376,12.980874 3.16391936,13.0585631 3.28125056,13.0682742 L3.30544256,13.0682742 C3.41672576,13.0682742 3.51954176,13.0087935 3.57276416,12.9104683 L5.84439296,8.74560531 L8.11239296,12.9104683 C8.16803456,13.0087935 8.27085056,13.0682742 8.38092416,13.0682742 L8.40511616,13.0682742 C8.52244736,13.0585631 8.62526336,12.980874 8.66759936,12.8679821 L9.36311936,10.9536746 L11.2404186,11.4440869 C11.3577498,11.4756481 11.4835482,11.4331619 11.5573338,11.3384783 C11.6335386,11.2401531 11.6432154,11.1090528 11.583945,11.0034442" id="Fill-76"></path>
                </g>
            </g>
        </g>
    </g>
</svg>