<?xml version="1.0" encoding="UTF-8"?>
<svg width="15px" height="10px" viewBox="0 0 15 10" version="1.1" xmlns="http://www.w3.org/2000/svg" xmlns:xlink="http://www.w3.org/1999/xlink">
    <!-- Generator: Sketch 46.2 (44496) - http://www.bohemiancoding.com/sketch -->
    <title>Fill 3</title>
    <desc>Created with Sketch.</desc>
    <defs></defs>
    <g id="Page-1" stroke="none" stroke-width="1" fill="none" fill-rule="evenodd">
        <g id="Desktop" transform="translate(-70.000000, -478.000000)" fill="#000000">
            <g id="CV_of_YIJING_YIN" transform="translate(1.000000, -2.000000)">
                <path d="M83.5366136,485.066107 L83.5366136,482.887109 L83.5132692,482.887109 C83.5156037,482.870582 83.5202726,482.855327 83.5202726,482.8388 C83.5179381,482.707857 83.4409016,482.59344 83.3276812,482.552759 L76.3488724,480.015256 C76.2916786,479.994915 76.2274815,479.994915 76.1702878,480.015256 L69.1926462,482.552759 C69.0782586,482.59344 69.0023893,482.707857 69.0000548,482.8388 C68.9977204,482.968472 69.0700881,483.085431 69.1821412,483.131198 L71.2714651,483.982965 L71.2714651,487.953216 C71.2714651,488.011696 71.2878062,488.06509 71.3123178,488.112128 C71.5154141,489.251208 74.299234,490 76.1644517,490 C77.2172842,490 78.4055142,489.797864 79.3427919,489.458429 C80.1108227,489.180015 81.0282577,488.696923 81.0282577,487.978642 C81.0282577,487.931604 81.0177527,487.887109 80.9990772,487.847699 L80.9990772,484.083397 L82.9740136,483.279939 L82.9740136,485.040681 C82.6693691,485.155098 82.4499317,485.469108 82.4499317,485.839054 C82.4499317,486.304348 82.7977633,486.683193 83.2249659,486.683193 C83.6533356,486.683193 84,486.304348 84,485.839054 C84,485.493262 83.8085759,485.197051 83.5366136,485.066107" id="Fill-3"></path>
            </g>
        </g>
    </g>
</svg>