<?xml version="1.0" encoding="UTF-8"?>
<svg width="11px" height="10px" viewBox="0 0 11 10" version="1.1" xmlns="http://www.w3.org/2000/svg" xmlns:xlink="http://www.w3.org/1999/xlink">
    <!-- Generator: Sketch 46.2 (44496) - http://www.bohemiancoding.com/sketch -->
    <title>Group 51</title>
    <desc>Created with Sketch.</desc>
    <defs></defs>
    <g id="Page-1" stroke="none" stroke-width="1" fill="none" fill-rule="evenodd">
        <g id="Desktop" transform="translate(-92.000000, -412.000000)" fill="#000000">
            <g id="CV_of_YIJING_YIN" transform="translate(1.000000, -2.000000)">
                <g id="Group-55">
                    <g id="Group-51" transform="translate(91.346793, 413.734014)">
                        <path d="M5.93697672,4.48295701 C6.06345653,4.33446503 6.17534252,4.18840733 6.30182233,4.05695541 C6.62531876,3.71615413 7.03151354,3.53114772 7.49243515,3.47150749 C7.94119525,3.41186727 8.38144228,3.44838169 8.80952779,3.60782801 C9.31301473,3.79405157 9.69002185,4.12754996 9.94906223,4.59615173 C10.2482356,5.13778233 10.3382309,5.73053314 10.339447,6.33910685 C10.3430955,7.55503714 10.3406632,8.77096743 10.3406632,9.98689772 C10.3406632,10.0075892 10.3382309,10.0294979 10.3370147,10.055058 L8.19293872,10.055058 C8.19293872,10.0173264 8.19293872,9.98568057 8.19293872,9.95403474 C8.19293872,8.85616775 8.19293872,7.75708362 8.19293872,6.65921663 C8.19293872,6.37318698 8.17348029,6.09080878 8.07740428,5.81816775 C7.9095753,5.3446974 7.52527126,5.11222224 7.02664893,5.14508522 C6.50978432,5.18038249 6.12061568,5.55161246 5.99048741,5.99343698 C5.94184133,6.15775189 5.93940903,6.340324 5.93940903,6.51315894 C5.93454442,7.65606038 5.93697672,8.79774467 5.93697672,9.93942897 L5.93697672,10.0526237 L3.79533302,10.0526237 L3.79533302,3.59687368 L3.88167981,3.59687368 C4.5359696,3.59687368 5.18904323,3.59809083 5.84333302,3.59443939 C5.91995059,3.59443939 5.94062518,3.61634804 5.93819287,3.69181118 C5.93454442,3.92672064 5.93697672,4.16284724 5.93697672,4.39775669 L5.93697672,4.48295701 Z" id="Fill-45"></path>
                        <path d="M2.59450451,3.59650854 L2.59450451,10.0595614 L2.51059002,10.0595614 C1.85630024,10.0595614 1.2032266,10.0583443 0.548936817,10.0619957 C0.47231924,10.0619957 0.45407696,10.0388699 0.45407696,9.96462392 C0.456509264,7.87356463 0.456509264,5.78250533 0.45407696,3.69144604 C0.45407696,3.61720004 0.47231924,3.59407424 0.550152969,3.59529139 C1.2032266,3.59772568 1.85630024,3.59650854 2.51059002,3.59650854 L2.59450451,3.59650854 Z" id="Fill-47"></path>
                        <path d="M1.52514204,2.71529379 C1.10192114,2.70799091 0.74072399,2.5716704 0.501142043,2.20165757 C0.101028029,1.57969524 0.400201425,0.761772158 1.10678575,0.549988504 C1.51906128,0.425839466 1.9240399,0.448965267 2.28523705,0.702131934 C2.64886651,0.956515748 2.78264323,1.32774572 2.72791639,1.75739876 C2.6744057,2.18583466 2.42874299,2.48160149 2.02254822,2.62644203 C1.86566461,2.68243081 1.69540333,2.70068802 1.53000665,2.7359853 C1.5287905,2.72868241 1.52635819,2.72259668 1.52514204,2.71529379" id="Fill-49"></path>
                    </g>
                </g>
            </g>
        </g>
    </g>
</svg>