<?xml version="1.0" encoding="UTF-8"?>
<svg width="15px" height="12px" viewBox="0 0 15 12" version="1.1" xmlns="http://www.w3.org/2000/svg" xmlns:xlink="http://www.w3.org/1999/xlink">
    <!-- Generator: Sketch 46.2 (44496) - http://www.bohemiancoding.com/sketch -->
    <title>Fill 54</title>
    <desc>Created with Sketch.</desc>
    <defs></defs>
    <g id="Page-1" stroke="none" stroke-width="1" fill="none" fill-rule="evenodd">
        <g id="Desktop" transform="translate(-90.000000, -387.000000)" fill="#000000">
            <g id="CV_of_YIJING_YIN" transform="translate(1.000000, -2.000000)">
                <g id="Group-55">
                    <path d="M92.430229,400.022929 L100.900728,400.022929 C102.264034,400.022929 103.363436,398.922628 103.363436,397.558206 L103.363436,392.137031 C103.363436,390.772609 102.264034,389.672308 100.900728,389.672308 L92.430229,389.672308 C91.0669226,389.672308 89.9675211,390.772609 89.9675211,392.137031 L89.9675211,397.558206 C89.9675211,398.922628 91.0681387,400.022929 92.430229,400.022929 L92.430229,400.022929 Z M102.379569,397.558206 C102.379569,398.37978 101.722847,399.03704 100.901944,399.03704 L92.430229,399.03704 C91.6093264,399.03704 90.9526043,398.37978 90.9526043,397.558206 L90.9526043,392.137031 C90.9526043,391.841264 91.0511126,391.56132 91.1994831,391.315457 L95.6810033,395.259014 C95.9595021,395.504878 96.3048893,395.63633 96.6660865,395.63633 C97.0102575,395.63633 97.3726708,395.521918 97.6353596,395.276054 L102.11688,391.332497 C102.264034,391.562538 102.362543,391.841264 102.362543,392.154071 L102.361326,397.558206 L102.379569,397.558206 Z M100.901944,390.658197 C101.049098,390.658197 101.197469,390.67402 101.328813,390.723923 L96.9944475,394.518989 C96.814457,394.683304 96.534742,394.683304 96.3377254,394.518989 L92.0033596,390.723923 C92.1359202,390.69106 92.2830746,390.658197 92.430229,390.658197 L100.901944,390.658197 Z" id="Fill-54"></path>
                </g>
            </g>
        </g>
    </g>
</svg>