<?xml version="1.0" encoding="UTF-8"?>
<svg width="11px" height="11px" viewBox="0 0 11 11" version="1.1" xmlns="http://www.w3.org/2000/svg" xmlns:xlink="http://www.w3.org/1999/xlink">
    <!-- Generator: Sketch 46.2 (44496) - http://www.bohemiancoding.com/sketch -->
    <title>Fill 89</title>
    <desc>Created with Sketch.</desc>
    <defs></defs>
    <g id="Page-1" stroke="none" stroke-width="1" fill="none" fill-rule="evenodd">
        <g id="Desktop" transform="translate(-72.000000, -781.000000)" fill="#000000">
            <g id="CV_of_YIJING_YIN" transform="translate(1.000000, -2.000000)">
                <path d="M78.6472263,787.518332 C77.9570548,787.521847 77.4324782,787.008761 77.4185821,786.317617 C77.403528,785.57376 77.9327367,785.037245 78.6680704,785.052474 C79.3524518,785.066531 79.8619743,785.600702 79.8550263,786.29536 C79.8480783,786.994703 79.3327657,787.512475 78.6472263,787.518332 M81.8792204,786.179389 C81.8792204,785.501131 81.8745884,784.820531 81.8815364,784.142273 C81.8884845,783.373815 81.5329767,782.991929 80.7594288,783.000129 C79.5273107,783.011844 78.2940345,783.020044 77.0642323,783.002472 C76.4620693,782.993101 75.9757069,783.210987 75.5599828,783.625673 C74.200484,784.973988 72.8363532,786.317617 71.4930665,787.67999 C70.8283712,788.354733 70.8376352,788.806905 71.5092786,789.494534 C72.8282472,790.842849 74.1530058,792.182964 75.4939765,793.506679 C76.1621458,794.167366 76.6276642,794.161508 77.3016235,793.506679 C78.1701279,792.664422 78.9598878,791.729621 79.8816604,790.957649 C81.39749,789.69602 82.3493708,788.258676 81.8792204,786.179389" id="Fill-89"></path>
            </g>
        </g>
    </g>
</svg>