<?xml version="1.0" encoding="UTF-8"?>
<svg width="16px" height="19px" viewBox="0 0 16 19" version="1.1" xmlns="http://www.w3.org/2000/svg" xmlns:xlink="http://www.w3.org/1999/xlink">
    <!-- Generator: Sketch 46.2 (44496) - http://www.bohemiancoding.com/sketch -->
    <title>Fill 25</title>
    <desc>Created with Sketch.</desc>
    <defs></defs>
    <g id="Page-1" stroke="none" stroke-width="1" fill="none" fill-rule="evenodd">
        <g id="Desktop" transform="translate(-400.000000, -962.000000)" fill="#000000">
            <g id="CV_of_YIJING_YIN" transform="translate(1.000000, -2.000000)">
                <g id="Group-27" transform="translate(399.000000, 370.000000)">
                    <path d="M15.5163095,601.128963 C15.5163095,597.230818 12.4270238,594.070949 8.6175,594.070949 C4.80678571,594.070949 1.71869048,597.230818 1.71869048,601.128963 C1.71869048,601.389245 1.73297619,601.645878 1.75916667,601.898862 C1.24964286,602.957017 0.306785714,604.841019 0.2925,604.87629 C0.243690476,604.986971 0.216309524,605.111031 0.216309524,605.241171 C0.216309524,605.734977 0.60797619,606.13513 1.09011905,606.13513 L1.9675,606.13513 L1.96035714,608.686864 C1.96035714,609.374056 2.50559524,609.931108 3.17821429,609.931108 L5.69845238,609.929892 L6.54369048,612.829479 L14.7579762,610.276529 L13.515119,606.093777 C14.7508333,604.81791 15.5163095,603.066481 15.5163095,601.128963 M7.86511905,601.216535 C7.86511905,601.300457 7.85678571,601.383163 7.84488095,601.463437 L9.52583333,602.458346 C9.78892857,602.240634 10.1234524,602.109277 10.4889286,602.109277 C11.3329762,602.109277 12.0186905,602.808632 12.0186905,603.672183 C12.0186905,604.535735 11.3329762,605.23509 10.4889286,605.23509 C9.64369048,605.23509 8.95916667,604.535735 8.95916667,603.672183 C8.95916667,603.587044 8.96630952,603.505554 8.98059524,603.424064 L7.29964286,602.430372 C7.03654762,602.6493 6.70202381,602.779441 6.33654762,602.779441 C5.49130952,602.779441 4.80678571,602.080086 4.80678571,601.216535 C4.80678571,600.351767 5.49130952,599.653628 6.33654762,599.653628 C6.70202381,599.653628 7.03654762,599.784985 7.29964286,600.002697 L8.98059524,599.007788 C8.9675,598.927515 8.96035714,598.844808 8.96035714,598.759669 C8.96035714,597.896118 9.64488095,597.196763 10.490119,597.196763 C11.3341667,597.196763 12.019881,597.896118 12.019881,598.759669 C12.019881,599.624437 11.3341667,600.322576 10.490119,600.322576 C10.1246429,600.322576 9.79011905,600.191219 9.52702381,599.974723 L7.84607143,600.968415 C7.85678571,601.049906 7.86511905,601.132612 7.86511905,601.216535" id="Fill-25"></path>
                </g>
            </g>
        </g>
    </g>
</svg>