<?xml version="1.0" encoding="UTF-8"?>
<svg width="12px" height="12px" viewBox="0 0 12 12" version="1.1" xmlns="http://www.w3.org/2000/svg" xmlns:xlink="http://www.w3.org/1999/xlink">
    <!-- Generator: Sketch 46.2 (44496) - http://www.bohemiancoding.com/sketch -->
    <title>Fill 28</title>
    <desc>Created with Sketch.</desc>
    <defs></defs>
    <g id="Page-1" stroke="none" stroke-width="1" fill="none" fill-rule="evenodd">
        <g id="Desktop" transform="translate(-91.000000, -364.000000)" fill="#000000">
            <g id="CV_of_YIJING_YIN" transform="translate(1.000000, -2.000000)">
                <g id="Group-31" transform="translate(70.000000, 366.000000)">
                    <path d="M30.0831448,0.277471358 C30.162035,0.261650622 30.2567032,0.261650622 30.3198154,0.293292093 C31.174257,0.625527534 31.7119241,1.84615811 31.8381484,2.68587406 C32.2325994,5.41190845 30.0831448,7.77406593 28.1072486,9.32814893 C26.352245,10.7057699 22.9854538,12.9730029 20.9937796,10.7848736 C20.7413309,10.5159211 20.4403344,10.1204027 20.4561125,9.72366731 C20.5046603,9.05797945 21.1200039,8.58335739 21.5945588,8.2182635 C21.9574537,7.949311 22.7160134,7.20330248 23.1905683,7.21912321 C23.6165754,7.23494395 23.8860158,7.67914152 24.1542425,7.94809402 L24.6287974,8.42393306 C24.7076876,8.50303673 25.7199096,7.83734887 25.8303559,7.75824519 C26.240585,7.48929269 26.6362497,7.18748174 26.9845803,6.8552463 C27.3316972,6.52179388 27.647258,6.15791697 27.9166984,5.77700234 C27.9955886,5.6662572 28.643702,4.69875838 28.5805898,4.61965471 C28.5805898,4.61965471 28.0271447,4.01724979 27.8693643,3.77872178 C27.5380254,3.27245825 27.2843631,2.87572289 27.663036,2.27331796 C27.8062521,2.05182767 27.9798106,1.87779958 28.169147,1.68673378 C28.5004859,1.37031907 28.8330385,1.03808363 29.2117114,0.767914152 C29.4180397,0.609706799 29.767584,0.324933563 30.0831448,0.277471358" id="Fill-28"></path>
                </g>
            </g>
        </g>
    </g>
</svg>