<?xml version="1.0" encoding="UTF-8"?>
<svg width="11px" height="9px" viewBox="0 0 11 9" version="1.1" xmlns="http://www.w3.org/2000/svg" xmlns:xlink="http://www.w3.org/1999/xlink">
    <!-- Generator: Sketch 46.2 (44496) - http://www.bohemiancoding.com/sketch -->
    <title>Fill 13</title>
    <desc>Created with Sketch.</desc>
    <defs></defs>
    <g id="Page-1" stroke="none" stroke-width="1" fill="none" fill-rule="evenodd">
        <g id="Desktop" transform="translate(-402.000000, -335.000000)" fill="#000000">
            <g id="CV_of_YIJING_YIN" transform="translate(1.000000, -2.000000)">
                <path d="M406.519004,337.002304 C407.920868,337.002304 409.322732,337.000003 410.725737,337.003455 C411.776279,337.005755 411.993003,337.220879 411.995285,338.248178 C411.995285,339.892087 411.981597,341.537147 411.999847,343.182207 C412.007832,343.934563 411.703277,344.293485 410.933336,344.277379 C409.78926,344.253221 408.644043,344.27853 407.499967,344.269327 C407.125832,344.267026 406.837247,344.277379 406.830403,344.796206 C406.82584,345.328837 407.131535,345.329987 407.496545,345.315032 C407.526202,345.313882 407.554718,345.316183 407.583235,345.316183 C408.087404,345.319634 408.76039,345.18964 408.76039,345.676255 C408.76039,346.050132 408.094248,345.986861 407.514795,345.986861 C406.601131,345.986861 405.686327,346.002966 404.770381,345.999515 C404.50689,345.998365 404.197773,345.996064 404.190929,345.646345 C404.181804,345.254062 404.530844,345.339191 404.7681,345.320784 C405.024747,345.302378 405.282535,345.313882 405.540323,345.315032 C405.863128,345.316183 406.166542,345.343792 406.171105,344.850274 C406.175667,344.385516 405.990881,344.257823 405.558573,344.264725 C404.413357,344.285432 403.26814,344.247469 402.125204,344.27853 C401.319903,344.300387 400.993676,343.951819 401.003941,343.148845 C401.027895,341.476176 401.033598,339.801206 401.000519,338.128537 C400.98341,337.291052 401.389483,336.998853 402.141174,337.000003 C403.60007,337.003455 405.060108,337.002304 406.519004,337.002304" id="Fill-13"></path>
            </g>
        </g>
    </g>
</svg>